<?xml version="1.0" encoding="utf-8"?>
<svg viewBox="62.891 58.734 214.156 80.484" xmlns="http://www.w3.org/2000/svg">
  <path d="M 73.32 64.015 C 80.053 64.015 83.42 67.225 83.42 73.645 C 83.42 80.065 80.053 83.275 73.32 83.275 L 64.97 83.275 L 64.97 64.015 L 73.32 64.015 Z M 71.16 68.635 L 71.16 78.655 L 73.2 78.655 C 75.8 78.655 77.1 77.265 77.1 74.485 L 77.1 72.805 C 77.1 70.025 75.8 68.635 73.2 68.635 L 71.16 68.635 ZM 86.75 83.275 L 86.75 64.015 L 103.41 64.015 L 103.41 68.635 L 92.94 68.635 L 92.94 71.295 L 101.9 71.295 L 101.9 75.715 L 92.94 75.715 L 92.94 78.655 L 103.61 78.655 L 103.61 83.275 L 86.75 83.275 ZM 125.253 69.915 C 125.253 71.095 124.933 72.162 124.293 73.115 C 123.66 74.062 122.736 74.762 121.523 75.215 L 125.813 83.275 L 118.863 83.275 L 115.453 76.245 L 113.153 76.245 L 113.153 83.275 L 106.963 83.275 L 106.963 64.015 L 118.753 64.015 C 120.133 64.015 121.313 64.278 122.293 64.805 C 123.273 65.338 124.01 66.058 124.503 66.965 C 125.003 67.872 125.253 68.855 125.253 69.915 Z M 118.953 70.175 C 118.953 69.668 118.783 69.248 118.443 68.915 C 118.11 68.575 117.7 68.405 117.213 68.405 L 113.153 68.405 L 113.153 71.965 L 117.213 71.965 C 117.7 71.965 118.11 71.792 118.443 71.445 C 118.783 71.098 118.953 70.675 118.953 70.175 Z" transform="matrix(1, 0, 0, 1, 0, 0)" style="fill: currentColor; white-space: pre;"/>
  <path d="M 84.43 108.475 L 77.88 108.475 L 77.07 105.755 L 70.32 105.755 L 69.51 108.475 L 63.18 108.475 L 70.21 89.215 L 77.4 89.215 L 84.43 108.475 Z M 73.65 94.585 L 71.61 101.445 L 75.78 101.445 L 73.76 94.585 L 73.65 94.585 ZM 97.56 89.215 C 98.754 89.215 99.817 89.488 100.75 90.035 C 101.684 90.588 102.414 91.345 102.94 92.305 C 103.46 93.265 103.72 94.342 103.72 95.535 L 103.72 95.905 C 103.72 97.098 103.46 98.182 102.94 99.155 C 102.414 100.122 101.684 100.882 100.75 101.435 C 99.817 101.982 98.754 102.255 97.56 102.255 L 92.94 102.255 L 92.94 108.475 L 86.75 108.475 L 86.75 89.215 L 97.56 89.215 Z M 92.94 93.775 L 92.94 97.755 L 95.49 97.755 C 96.144 97.755 96.634 97.585 96.96 97.245 C 97.287 96.912 97.45 96.455 97.45 95.875 L 97.45 95.655 C 97.45 95.055 97.287 94.592 96.96 94.265 C 96.634 93.938 96.144 93.775 95.49 93.775 L 92.94 93.775 ZM 116.543 88.875 C 119.863 88.875 122.43 89.725 124.243 91.425 C 126.05 93.125 126.953 95.598 126.953 98.845 C 126.953 102.092 126.05 104.565 124.243 106.265 C 122.43 107.965 119.863 108.815 116.543 108.815 C 113.216 108.815 110.653 107.968 108.853 106.275 C 107.053 104.588 106.153 102.112 106.153 98.845 C 106.153 95.578 107.053 93.098 108.853 91.405 C 110.653 89.718 113.216 88.875 116.543 88.875 Z M 116.543 93.495 C 115.216 93.495 114.206 93.895 113.513 94.695 C 112.826 95.502 112.483 96.585 112.483 97.945 L 112.483 99.735 C 112.483 101.102 112.826 102.185 113.513 102.985 C 114.206 103.792 115.216 104.195 116.543 104.195 C 117.87 104.195 118.883 103.792 119.583 102.985 C 120.283 102.185 120.633 101.102 120.633 99.735 L 120.633 97.945 C 120.633 96.585 120.283 95.502 119.583 94.695 C 118.883 93.895 117.87 93.495 116.543 93.495 ZM 130.283 108.475 L 130.283 89.215 L 136.473 89.215 L 136.473 103.545 L 146.353 103.545 L 146.353 108.475 L 130.283 108.475 ZM 158.06 88.875 C 161.38 88.875 163.947 89.725 165.76 91.425 C 167.567 93.125 168.47 95.598 168.47 98.845 C 168.47 102.092 167.567 104.565 165.76 106.265 C 163.947 107.965 161.38 108.815 158.06 108.815 C 154.733 108.815 152.17 107.968 150.37 106.275 C 148.57 104.588 147.67 102.112 147.67 98.845 C 147.67 95.578 148.57 93.098 150.37 91.405 C 152.17 89.718 154.733 88.875 158.06 88.875 Z M 158.06 93.495 C 156.733 93.495 155.723 93.895 155.03 94.695 C 154.343 95.502 154 96.585 154 97.945 L 154 99.735 C 154 101.102 154.343 102.185 155.03 102.985 C 155.723 103.792 156.733 104.195 158.06 104.195 C 159.387 104.195 160.4 103.792 161.1 102.985 C 161.8 102.185 162.15 101.102 162.15 99.735 L 162.15 97.945 C 162.15 96.585 161.8 95.502 161.1 94.695 C 160.4 93.895 159.387 93.495 158.06 93.495 ZM 181.49 88.875 C 183.337 88.875 184.997 89.155 186.47 89.715 C 187.95 90.275 189.123 91.102 189.99 92.195 C 190.857 93.288 191.29 94.618 191.29 96.185 L 185.38 96.185 C 185.38 95.378 185.027 94.728 184.32 94.235 C 183.607 93.742 182.747 93.495 181.74 93.495 C 180.287 93.495 179.187 93.882 178.44 94.655 C 177.693 95.428 177.32 96.525 177.32 97.945 L 177.32 99.735 C 177.32 101.155 177.693 102.252 178.44 103.025 C 179.187 103.805 180.287 104.195 181.74 104.195 C 182.747 104.195 183.607 103.955 184.32 103.475 C 185.027 103.002 185.38 102.392 185.38 101.645 L 181.01 101.645 L 181.01 97.725 L 191.29 97.725 L 191.29 108.475 L 188.1 108.475 L 187.48 106.575 C 185.727 108.068 183.43 108.815 180.59 108.815 C 177.403 108.815 175.007 107.978 173.4 106.305 C 171.793 104.632 170.99 102.145 170.99 98.845 C 170.99 95.578 171.9 93.098 173.72 91.405 C 175.54 89.718 178.13 88.875 181.49 88.875 ZM 195.12 108.475 L 195.12 89.215 L 211.78 89.215 L 211.78 93.835 L 201.31 93.835 L 201.31 96.495 L 210.27 96.495 L 210.27 100.915 L 201.31 100.915 L 201.31 103.855 L 211.98 103.855 L 211.98 108.475 L 195.12 108.475 ZM 232.723 94.135 L 226.423 94.135 L 226.423 108.475 L 220.233 108.475 L 220.233 94.135 L 213.903 94.135 L 213.903 89.215 L 232.723 89.215 L 232.723 94.135 ZM 242.015 108.475 L 235.825 108.475 L 235.825 89.215 L 242.015 89.215 L 242.015 108.475 ZM 252.625 97.445 L 259.485 89.215 L 267.155 89.215 L 260.245 97.135 L 267.295 108.475 L 259.985 108.475 L 255.985 101.415 L 252.625 104.165 L 252.625 108.475 L 246.435 108.475 L 246.435 89.215 L 252.625 89.215 L 252.625 97.445 Z" transform="matrix(1, 0, 0, 1, 0, 0)" style="fill: currentColor; white-space: pre;"/>
  <path d="M 74.16 114.075 C 77.013 114.075 79.27 114.788 80.93 116.215 C 82.59 117.642 83.42 119.682 83.42 122.335 L 77.52 122.335 C 77.52 121.215 77.223 120.328 76.63 119.675 C 76.043 119.022 75.21 118.695 74.13 118.695 C 72.877 118.695 71.957 119.088 71.37 119.875 C 70.783 120.655 70.49 121.745 70.49 123.145 L 70.49 124.935 C 70.49 126.322 70.783 127.412 71.37 128.205 C 71.957 128.998 72.857 129.395 74.07 129.395 C 75.263 129.395 76.17 129.085 76.79 128.465 C 77.403 127.852 77.71 126.985 77.71 125.865 L 83.42 125.865 C 83.42 128.498 82.613 130.515 81 131.915 C 79.387 133.315 77.107 134.015 74.16 134.015 C 70.873 134.015 68.383 133.175 66.69 131.495 C 65.003 129.815 64.16 127.332 64.16 124.045 C 64.16 120.758 65.003 118.275 66.69 116.595 C 68.383 114.915 70.873 114.075 74.16 114.075 ZM 105.93 133.675 L 99.74 133.675 L 99.74 126.365 L 92.94 126.365 L 92.94 133.675 L 86.75 133.675 L 86.75 114.415 L 92.94 114.415 L 92.94 121.435 L 99.74 121.435 L 99.74 114.415 L 105.93 114.415 L 105.93 133.675 ZM 129.53 133.675 L 122.98 133.675 L 122.17 130.955 L 115.42 130.955 L 114.61 133.675 L 108.28 133.675 L 115.31 114.415 L 122.5 114.415 L 129.53 133.675 Z M 118.75 119.785 L 116.71 126.645 L 120.88 126.645 L 118.86 119.785 L 118.75 119.785 ZM 151.031 133.675 L 145.631 133.675 L 137.541 124.325 L 137.541 133.675 L 131.851 133.675 L 131.851 114.415 L 137.261 114.415 L 145.351 123.905 L 145.351 114.415 L 151.031 114.415 L 151.031 133.675 ZM 174.351 133.675 L 168.951 133.675 L 160.861 124.325 L 160.861 133.675 L 155.171 133.675 L 155.171 114.415 L 160.581 114.415 L 168.671 123.905 L 168.671 114.415 L 174.351 114.415 L 174.351 133.675 ZM 178.491 133.675 L 178.491 114.415 L 195.151 114.415 L 195.151 119.035 L 184.681 119.035 L 184.681 121.695 L 193.641 121.695 L 193.641 126.115 L 184.681 126.115 L 184.681 129.055 L 195.351 129.055 L 195.351 133.675 L 178.491 133.675 ZM 198.703 133.675 L 198.703 114.415 L 204.893 114.415 L 204.893 128.745 L 214.773 128.745 L 214.773 133.675 L 198.703 133.675 Z" transform="matrix(1, 0, 0, 1, 0, 0)" style="currentColor; white-space: pre;"/>
</svg>